<?xml version="1.0" encoding="UTF-8"?>
<svg version="1.1" xmlns="http://www.w3.org/2000/svg" width="1024" height="1024">
<path d="M0 0 C337.92 0 675.84 0 1024 0 C1024 337.92 1024 675.84 1024 1024 C686.08 1024 348.16 1024 0 1024 C0 686.08 0 348.16 0 0 Z " fill="#FCF0E4" transform="translate(0,0)"/>
<path d="M0 0 C1.9270895 -0.00445668 1.9270895 -0.00445668 3.8931101 -0.0090034 C7.42048736 -0.01698046 10.94784417 -0.0188577 14.47522938 -0.01960087 C18.29474553 -0.02146775 22.11425146 -0.02902287 25.9337616 -0.03573608 C34.26657781 -0.04925177 42.59938916 -0.055333 50.9322145 -0.05974674 C56.14449079 -0.06251964 61.35676525 -0.06675874 66.5690403 -0.07125092 C81.02835441 -0.08343281 95.48766707 -0.09373549 109.9469862 -0.09712601 C111.33195548 -0.09745536 111.33195548 -0.09745536 112.74490394 -0.09779136 C113.67028899 -0.09800964 114.59567404 -0.09822791 115.54910105 -0.09845281 C117.42395413 -0.09889626 119.2988072 -0.09934282 121.17366028 -0.09979248 C122.10363082 -0.10001391 123.03360137 -0.10023534 123.99175284 -0.10046348 C139.05549499 -0.10441031 154.11918873 -0.12186571 169.18291219 -0.145152 C184.6849227 -0.16892062 200.18690896 -0.18133029 215.68893796 -0.18249393 C224.37821522 -0.18340738 233.06742932 -0.18907665 241.75668907 -0.20731354 C249.15559204 -0.22278887 256.55441229 -0.22779133 263.95332839 -0.21957543 C267.72068176 -0.21569558 271.48786893 -0.21646643 275.25520134 -0.23063278 C306.36349311 -0.34062604 333.77088601 2.42115669 357.29450989 24.71075439 C374.52348739 42.87418491 380.75813012 64.19253818 380.73963928 88.66712952 C380.74409597 90.52572248 380.74409597 90.52572248 380.74864268 92.42186278 C380.75578643 95.84041182 380.75849914 99.25891057 380.75924015 102.67746341 C380.7611005 106.37302446 380.76865284 110.06857483 380.77537537 113.76412964 C380.7889212 121.83699466 380.79497795 129.9098547 380.79938602 137.9827292 C380.8021556 143.0321801 380.80639431 148.0816291 380.8108902 153.13107872 C380.82307947 167.13557343 380.83337848 181.14006664 380.83676529 195.14456654 C380.83698486 196.03984064 380.83720442 196.93511474 380.83743064 197.85751836 C380.83764892 198.75483541 380.8378672 199.65215246 380.83809209 200.57666093 C380.83853554 202.39471487 380.8389821 204.21276881 380.83943176 206.03082275 C380.83965319 206.93262454 380.83987462 207.83442632 380.84010276 208.76355543 C380.84404516 223.3541451 380.86148363 237.94468465 380.88479128 252.53525499 C380.90857588 267.5467232 380.92097041 282.55816635 380.92213321 297.56965369 C380.92304614 305.98518746 380.92870138 314.40065598 380.94695282 322.81617165 C380.9624503 329.98674486 380.96741809 337.15723264 380.95921472 344.32781944 C380.95534161 347.97792938 380.9560713 351.62786783 380.97027206 355.27795601 C381.08244892 385.9244645 379.33186226 413.10475348 356.76325989 436.09747314 C338.40269449 454.09307318 315.66537627 460.30607917 290.50027466 460.27415466 C288.5314243 460.277553 288.5314243 460.277553 286.52279919 460.28101999 C282.89465885 460.28711575 279.26654163 460.28700702 275.63839734 460.28582561 C271.71936702 460.28562104 267.80034402 460.29114578 263.88131714 460.29588318 C256.2084881 460.30417831 248.53566675 460.30693751 240.8628336 460.30749556 C234.62314597 460.3079713 228.38346086 460.31002895 222.14377403 460.31319618 C204.43820741 460.32199999 186.73264684 460.32661604 169.02707801 460.32586571 C168.07320406 460.32582575 167.11933012 460.3257858 166.1365509 460.32574463 C165.18150699 460.32570375 164.22646309 460.32566287 163.24247845 460.32562075 C147.7708946 460.32521445 132.2993351 460.33478055 116.82775829 460.348883 C100.92703603 460.36326178 85.02632563 460.37015234 69.1255967 460.36928922 C60.20447173 460.36895775 51.28337229 460.37168291 42.36225319 460.38246727 C34.76546978 460.39159209 27.16872347 460.39373131 19.57193694 460.38695785 C15.69996038 460.38370251 11.82805492 460.3836001 7.95608521 460.3923111 C4.40348564 460.40022099 0.85101303 460.39869933 -2.7015836 460.39002696 C-4.57849272 460.3877857 -6.45540592 460.39528527 -8.33229941 460.40326661 C-31.53547864 460.30987753 -50.84144664 453.45883111 -68.40080261 438.14044189 C-69.01439636 437.61063721 -69.62799011 437.08083252 -70.26017761 436.53497314 C-85.05607168 422.79108072 -92.86945394 402.99178479 -94.40080261 383.14044189 C-94.54071086 378.94735501 -94.54439954 374.75748478 -94.54124451 370.56233215 C-94.54421563 369.31777549 -94.54718675 368.07321883 -94.55024791 366.79094833 C-94.55739188 363.35713656 -94.56010438 359.92337486 -94.56084538 356.48955929 C-94.56270563 352.77767645 -94.57025784 349.06580424 -94.57698059 345.35392761 C-94.59052587 337.24607402 -94.59658287 329.13822539 -94.60099125 321.03036237 C-94.60376049 315.96015586 -94.6079991 310.88995124 -94.61249542 305.81974602 C-94.62468381 291.76034573 -94.63498352 277.70094694 -94.63837051 263.64154148 C-94.63859008 262.74279664 -94.63880965 261.84405181 -94.63903587 260.91807228 C-94.63925414 260.01726936 -94.63947242 259.11646645 -94.63969731 258.18836647 C-94.64014077 256.3632282 -94.64058733 254.53808993 -94.64103699 252.71295166 C-94.64125842 251.80763464 -94.64147985 250.90231762 -94.64170799 249.96956675 C-94.64565191 235.31619407 -94.66309549 220.66287124 -94.68639651 206.0095178 C-94.71016895 190.93703858 -94.72257506 175.86458432 -94.72373843 160.79208606 C-94.72465196 152.34084571 -94.73032247 143.88967031 -94.74855804 135.43844795 C-94.7640389 128.23890539 -94.76903285 121.03944786 -94.76081994 113.8398918 C-94.75694129 110.17382783 -94.75770467 106.50793465 -94.77187729 102.84189224 C-94.87842716 73.55163548 -92.85316129 47.0404262 -71.27189636 24.95684814 C-50.88920327 4.75216984 -27.95023959 -0.02060256 0 0 Z " fill="#1C90E6" transform="translate(366.4008026123047,290.85955810546875)"/>
<path d="M0 0 C4.69601127 1.93965683 5.21085011 3.35141684 8 8 C8 13.28 8 18.56 8 24 C18.89 24 29.78 24 41 24 C41 19.38 41 14.76 41 10 C42.18639248 5.81640545 42.99104455 3.86882275 46.25 1.0625 C49.80239086 -0.31001465 52.21398443 -0.46494928 56 0 C59.47373656 1.73686828 61.51249397 3.36624217 63.875 6.4375 C65.0460673 10.1458798 65.11362776 12.85556629 65.0703125 16.72265625 C65.06016113 17.89707275 65.05000977 19.07148926 65.03955078 20.28149414 C65.02649902 21.17860107 65.01344727 22.07570801 65 23 C66.09501831 22.9685791 66.09501831 22.9685791 67.2121582 22.93652344 C70.57879383 22.85243073 73.94520745 22.80104721 77.3125 22.75 C78.46041016 22.71648437 79.60832031 22.68296875 80.79101562 22.6484375 C88.78608182 22.55784185 97.2698521 23.09732451 103.71240234 28.4128418 C108.79746038 34.15537117 109.29840485 39.68518531 109.29052734 46.9777832 C109.29724457 47.87274506 109.30396179 48.76770691 109.31088257 49.68978882 C109.32985407 52.64350971 109.33378645 55.59700324 109.3359375 58.55078125 C109.34236638 60.60955396 109.34909481 62.66832576 109.35610962 64.72709656 C109.36808053 69.04196286 109.37179067 73.35674912 109.37060547 77.67163086 C109.37040238 83.18960879 109.39769543 88.70707112 109.43214989 94.22492695 C109.45443314 98.47755776 109.45844256 102.73006482 109.45738602 106.98274803 C109.45974017 109.01643842 109.46855319 111.05013232 109.48405075 113.08376503 C109.50373782 115.93421714 109.49786177 118.78356168 109.48583984 121.6340332 C109.49707886 122.46703445 109.50831787 123.30003571 109.51989746 124.15827942 C109.44316446 131.35036283 107.07126147 137.3489675 102.01171875 142.5625 C101.20516846 143.40965576 101.20516846 143.40965576 100.38232422 144.27392578 C99.54338623 145.12833252 99.54338623 145.12833252 98.6875 146 C97.5161329 147.22580408 96.34555214 148.45236009 95.17578125 149.6796875 C94.34361084 150.5454541 94.34361084 150.5454541 93.49462891 151.42871094 C91.73229145 153.28143944 90.04200296 155.18624716 88.375 157.125 C85.51997554 160.43230556 82.58248147 163.65946971 79.625 166.875 C76.11173768 170.69648547 72.6053414 174.52342218 69.125 178.375 C68.03832031 179.57382812 68.03832031 179.57382812 66.9296875 180.796875 C65.27385182 182.68734327 63.75939688 184.61872092 62.25 186.625 C60 189 60 189 57.66796875 189.41796875 C54.03099648 188.84819418 52.65690208 187.2573106 50.0625 184.6875 C45.70226525 180.39636565 41.81877567 177.47866002 35.6875 176.4375 C30.54945434 177.22126968 26.85727048 179.5538727 23 183 C19.69901426 187.68645138 19.28944869 191.33452224 19.4491272 196.97012329 C20.4055466 202.23056249 23.45576163 205.02644789 27.26171875 208.57421875 C28.00452591 209.30953323 28.74733307 210.04484772 29.51264954 210.80244446 C31.07843173 212.34147429 32.65847552 213.86611512 34.25170898 215.37670898 C36.69132675 217.69113037 39.08507048 220.04611998 41.47460938 222.41210938 C43.00534358 223.90617953 44.53846784 225.39780573 46.07421875 226.88671875 C46.79212082 227.58762131 47.51002289 228.28852386 48.24967957 229.01066589 C48.93000748 229.65256363 49.61033539 230.29446136 50.3112793 230.95581055 C51.20063423 231.80419746 51.20063423 231.80419746 52.10795593 232.66972351 C54.42958558 234.30203715 56.17966222 234.77821934 59 235 C60.94439708 233.39276268 62.37337235 231.89736164 64 230 C65.24260027 228.68685167 66.4904226 227.37863379 67.7421875 226.07421875 C69.12062201 224.61276189 70.49820701 223.15050339 71.875 221.6875 C72.55691406 220.96626953 73.23882813 220.24503906 73.94140625 219.50195312 C77.84416657 215.35759336 81.65232455 211.1503007 85.38330078 206.85083008 C87.70850622 204.1888877 90.10142667 201.5961029 92.5 199 C95.53968996 195.70047223 98.56158059 192.39048393 101.5 189 C104.86322638 185.12182987 108.33335671 181.34472189 111.80810547 177.56689453 C115.50330998 173.5478378 119.16594442 169.50080479 122.8125 165.4375 C125.07862316 162.91239133 127.35190615 160.39383372 129.625 157.875 C132.23321162 154.97898572 134.8206549 152.06857864 137.375 149.125 C140.82716078 145.15902924 144.38750881 141.29482354 147.94824219 137.42675781 C151.10697965 133.9897558 154.20638336 130.50978679 157.265625 126.984375 C161.55679952 122.0746528 165.95802108 117.26125182 170.328125 112.421875 C171.08609375 111.58140625 171.8440625 110.7409375 172.625 109.875 C173.36363281 109.05644531 174.10226562 108.23789062 174.86328125 107.39453125 C177.41837812 104.53114115 179.91677663 101.62188641 182.39453125 98.69140625 C185.41496176 95.5092982 187.76308477 93.55854987 192.25 93.4375 C200.17417497 93.76119996 204.72736755 99.56661372 209.8125 105.0625 C216.96366676 113.07433816 216.96366676 113.07433816 217.0625 118.3125 C214.5496997 127.03339515 206.9522548 133.4161682 200.8828125 139.90234375 C198.68758936 142.25073841 196.53985148 144.63006918 194.4375 147.0625 C191.52201971 150.43419237 188.5192008 153.72138808 185.5 157 C181.85829503 160.95586722 178.26500437 164.94561697 174.7421875 169.0078125 C171.92536738 172.22883999 169.04689854 175.39417636 166.1796875 178.5703125 C164.30854906 180.6560618 162.46075169 182.75817628 160.625 184.875 C157.17216181 188.841749 153.61122619 192.70682669 150.04956055 196.57543945 C146.91482948 199.98598806 143.84273698 203.44159116 140.80859375 206.94140625 C137.7222052 210.45442302 134.55371222 213.89299818 131.40234375 217.34765625 C129.43058156 219.52460996 127.48634663 221.71838674 125.5625 223.9375 C122.01395045 228.03067107 118.33684 232.00285534 114.64282227 235.96459961 C110.64337136 240.28552938 109.8816 242.18203275 109.7890625 248.0390625 C109.76070312 249.25980469 109.73234375 250.48054687 109.703125 251.73828125 C109.65151553 254.30585256 109.60710837 256.87357992 109.5703125 259.44140625 C109.19574049 274.31503651 109.19574049 274.31503651 104.69067383 279.50976562 C99.21856394 284.47972478 93.3610505 285.29875546 86.23979187 285.26742554 C85.09619075 285.27422221 85.09619075 285.27422221 83.92948657 285.28115618 C81.38481351 285.29377672 78.84035512 285.29218134 76.2956543 285.29052734 C74.46702806 285.29651407 72.63840434 285.30331995 70.80978394 285.31088257 C65.8489358 285.32853528 60.88815669 285.33323765 55.92728019 285.33451414 C52.8258955 285.33593673 49.7245283 285.34020838 46.62314796 285.34550858 C35.7976635 285.36400657 24.97222826 285.37217949 14.14672852 285.37060547 C4.06516817 285.36940419 -6.01617804 285.39050442 -16.0976842 285.4220928 C-24.761154 285.44826806 -33.42455392 285.45897223 -42.08806294 285.45769465 C-47.25884639 285.45718538 -52.42943952 285.46284942 -57.60018349 285.48405075 C-62.46514879 285.50345408 -67.32974261 285.50354323 -72.19472122 285.48901749 C-73.97605242 285.48693088 -75.75740699 285.49162142 -77.5386982 285.5037384 C-95.62875108 285.61878323 -95.62875108 285.61878323 -102 281 C-107.51497443 274.49515837 -108.29640913 267.89867447 -108.25396729 259.71450806 C-108.25708727 258.78805965 -108.26020725 257.86161124 -108.26342177 256.90708864 C-108.27138957 253.80729747 -108.26508277 250.70770273 -108.25878906 247.60791016 C-108.2614995 245.38357936 -108.26506073 243.15924946 -108.26940918 240.93492126 C-108.27853021 234.89565345 -108.27498978 228.85645394 -108.26865101 222.81718493 C-108.26358831 216.49615323 -108.26828333 210.17512739 -108.27142334 203.85409546 C-108.27529587 192.55652095 -108.26907821 181.25898112 -108.25890467 169.96141355 C-108.24997375 159.72718998 -108.25151788 149.4930118 -108.26074219 139.25878906 C-108.2714568 127.36557461 -108.27542275 115.47238772 -108.26951766 103.57916677 C-108.26640136 97.28674122 -108.26597921 90.99434691 -108.27259064 84.70192337 C-108.27837408 78.78399359 -108.2743488 72.86614938 -108.26280212 66.94822884 C-108.26016066 64.77785827 -108.26091185 62.60748049 -108.26532745 60.43711281 C-108.27080468 57.47113151 -108.26392218 54.50542321 -108.25396729 51.53945923 C-108.25842873 50.68360942 -108.26289017 49.8277596 -108.26748681 48.94597495 C-108.21681289 41.14439779 -107.18872149 34.17037151 -102 28 C-95.72919024 23.28407767 -90.21827994 23.51373854 -82.5625 23.75 C-81.44939453 23.76804687 -80.33628906 23.78609375 -79.18945312 23.8046875 C-76.45873354 23.85156681 -73.72982614 23.91717181 -71 24 C-71.05800781 22.84242188 -71.11601562 21.68484375 -71.17578125 20.4921875 C-71.22270265 18.95316552 -71.26820026 17.41409967 -71.3125 15.875 C-71.35439453 15.11445313 -71.39628906 14.35390625 -71.43945312 13.5703125 C-71.52643435 9.53438368 -71.29394129 6.77618895 -68.8203125 3.48828125 C-64.90988193 0.03821993 -62.67738733 0.20119014 -57.66796875 0.46484375 C-53.53576156 1.29370522 -51.80592352 2.89871611 -49 6 C-46.31258075 11.3748385 -48 17.99074787 -48 24 C-37.11 24 -26.22 24 -15 24 C-15 18.72 -15 13.44 -15 8 C-10.98645019 -0.02709961 -8.31838614 -0.93728295 0 0 Z " fill="#FBF1E4" transform="translate(446,373)"/>
<path d="M0 0 C1.13984848 -0.0071553 2.27969696 -0.01431061 3.4540863 -0.02168274 C4.71074097 -0.02437164 5.96739563 -0.02706055 7.26213074 -0.02983093 C8.58087692 -0.03640213 9.89962311 -0.04297333 11.2583313 -0.04974365 C14.88239386 -0.06715875 18.50644323 -0.07770678 22.13053727 -0.08594918 C24.39431567 -0.09109825 26.65808996 -0.09717402 28.92186546 -0.10346031 C36.00345835 -0.1225138 43.08504081 -0.13674461 50.16665441 -0.14507228 C58.34350972 -0.15484642 66.52009446 -0.18116964 74.69685441 -0.22157317 C81.01539428 -0.25172425 87.33385654 -0.26654018 93.65246695 -0.26985329 C97.42706181 -0.27220495 101.20136765 -0.28117979 104.97588539 -0.30631447 C108.52756553 -0.32958294 112.07876612 -0.33383376 115.6305027 -0.32355309 C117.55351996 -0.3228211 119.4765128 -0.34192107 121.39942932 -0.36161804 C123.12189125 -0.35120232 123.12189125 -0.35120232 124.87915039 -0.34057617 C125.87485456 -0.34296453 126.87055872 -0.34535288 127.89643574 -0.34781361 C132.0097905 0.39700504 134.57356563 2.63790669 136.94255066 6.02217102 C137.89390338 8.96271579 137.99988209 11.06524241 137.63005066 14.14717102 C134.47215592 19.72611839 134.47215592 19.72611839 131.63005066 21.14717102 C129.81695884 21.24910729 128.00011241 21.28665333 126.18417358 21.29434204 C124.4491584 21.305075 124.4491584 21.305075 122.67909241 21.31602478 C121.40373627 21.31871368 120.12838013 21.32140259 118.81437683 21.32417297 C117.46260401 21.33043695 116.11083292 21.33708369 114.75906372 21.34408569 C111.08128377 21.36150134 107.40351683 21.37204896 103.72570586 21.38029122 C101.42842556 21.38544015 99.13114929 21.39151593 96.83387184 21.39780235 C89.64762745 21.41685595 82.46139334 21.43108677 75.27512854 21.43941432 C66.97715393 21.44918863 58.67944593 21.47551227 50.38156527 21.51591522 C43.96960795 21.54606512 37.55772711 21.56088211 31.14570028 21.56419533 C27.31521586 21.56654711 23.48501621 21.5755236 19.65460777 21.60065651 C16.05040003 21.62392294 12.44666485 21.6281766 8.8424015 21.61789513 C6.8907581 21.61716305 4.93913877 21.63626441 2.9875946 21.65596008 C1.23989021 21.64554436 1.23989021 21.64554436 -0.54312134 21.63491821 C-2.05880062 21.63850074 -2.05880062 21.63850074 -3.60509968 21.64215565 C-7.12489959 21.01201403 -8.80751184 19.58860716 -11.36994934 17.14717102 C-13.1062657 13.67453829 -12.97185336 9.93524089 -12.36994934 6.14717102 C-8.51081368 1.27247334 -6.0318402 0.02591761 0 0 Z " fill="#1B8EE6" transform="translate(381.3699493408203,450.8528289794922)"/>
<path d="M0 0 C1.13984848 -0.00571014 2.27969696 -0.01142029 3.4540863 -0.01730347 C4.71074097 -0.01842133 5.96739563 -0.01953918 7.26213074 -0.02069092 C9.24025002 -0.02813828 9.24025002 -0.02813828 11.2583313 -0.03573608 C14.88239944 -0.04886935 18.50644905 -0.05530697 22.13053727 -0.05974674 C24.39431588 -0.06267629 26.65808941 -0.0667809 28.92186546 -0.07125092 C36.00346154 -0.08492898 43.08504603 -0.09459383 50.16665441 -0.09845281 C58.34346043 -0.10293292 66.52009924 -0.12047722 74.69685441 -0.1494534 C81.01539542 -0.17106777 87.33388937 -0.18115697 93.65246695 -0.18249393 C97.42700511 -0.18354224 101.20138614 -0.18945534 104.97588539 -0.20731354 C108.52750806 -0.22378986 112.07885544 -0.22595204 115.6305027 -0.21717453 C117.55349858 -0.21603672 119.47648531 -0.22975799 121.39942932 -0.243927 C123.12189125 -0.23557327 123.12189125 -0.23557327 124.87915039 -0.22705078 C125.87485456 -0.22851734 126.87055872 -0.2299839 127.89643574 -0.2314949 C132.12970069 0.34448491 134.75495969 2.11950243 137.50505066 5.32794189 C138.7967931 8.55729801 138.80812775 10.67053839 138.54020691 14.07794189 C137.0347412 17.48946934 134.8848732 19.47027205 131.63005066 21.14044189 C127.24191804 21.89333714 122.8953523 21.82334476 118.45207214 21.78741455 C117.10955115 21.79419587 115.76703946 21.8031019 114.42454529 21.81396484 C110.79014993 21.83670237 107.15646653 21.82794611 103.5220592 21.81206942 C99.71404822 21.79938392 95.90609695 21.81115762 92.0980835 21.81900024 C85.70506374 21.82808805 79.31233313 21.8161308 72.9193573 21.79229736 C65.53233994 21.76507579 58.14601239 21.77391068 50.75901169 21.80142939 C44.41060979 21.82413058 38.06241535 21.82731606 31.71398598 21.81423604 C27.9249259 21.80644845 24.13618994 21.80538074 20.3471508 21.82191849 C16.78538135 21.83637951 13.22450018 21.8263136 9.66282654 21.7974472 C7.73512996 21.78770021 5.8073581 21.80252204 3.87969971 21.81808472 C-5.54228273 21.70266471 -5.54228273 21.70266471 -8.62298584 18.7250061 C-11.42866182 14.57411817 -11.79223276 12.2078429 -11.36994934 7.14044189 C-8.12649788 1.30222927 -6.5032718 0.0194506 0 0 Z " fill="#1A8DE6" transform="translate(380.3699493408203,506.85955810546875)"/>
<path d="M0 0 C1.16170715 -0.01283524 2.32341431 -0.02567047 3.52032471 -0.03889465 C5.41243683 -0.04997505 5.41243683 -0.04997505 7.34277344 -0.0612793 C9.28153351 -0.07338692 9.28153351 -0.07338692 11.25946045 -0.08573914 C13.99995798 -0.10076802 16.74042958 -0.11060428 19.48095703 -0.11816406 C22.98260941 -0.12921028 26.48362309 -0.16358784 29.9850502 -0.20333576 C33.33343192 -0.23585527 36.68174601 -0.24028584 40.03027344 -0.2487793 C41.91024017 -0.27504143 41.91024017 -0.27504143 43.82818604 -0.30183411 C54.64069516 -0.27489695 54.64069516 -0.27489695 59.45214844 4.17700195 C61.96036115 7.2304783 61.57199735 10.23062678 61.32714844 14.0793457 C59.876189 17.55776187 57.75145414 19.51949194 54.45214844 21.17700195 C49.86979889 21.92226979 45.33211118 21.85362064 40.69824219 21.8059082 C39.35115874 21.80673783 38.0040754 21.80920074 36.65699768 21.81321716 C33.8417391 21.81606749 31.0272795 21.80144935 28.2121582 21.77392578 C24.61170999 21.73980941 21.01268631 21.74587827 17.41216946 21.76458836 C14.63332839 21.77517788 11.85481643 21.76620378 9.07600594 21.75120354 C7.1057327 21.74353467 5.13541947 21.75086076 3.16514587 21.75843811 C1.96362381 21.74260178 0.76210175 21.72676544 -0.47583008 21.71044922 C-1.53028824 21.70425064 -2.5847464 21.69805206 -3.67115784 21.69166565 C-7.25776877 21.04999204 -8.94254301 19.67330148 -11.54785156 17.17700195 C-13.28416793 13.70436923 -13.14975558 9.96507182 -12.54785156 6.17700195 C-8.63037514 1.22861068 -6.11739963 0.05871834 0 0 Z " fill="#1C8EE6" transform="translate(381.5478515625,561.822998046875)"/>
<path d="M0 0 C1.29164063 -0.02900391 2.58328125 -0.05800781 3.9140625 -0.08789062 C5.77804687 -0.10045898 5.77804687 -0.10045898 7.6796875 -0.11328125 C8.79843262 -0.12786377 9.91717773 -0.14244629 11.06982422 -0.1574707 C14.83188105 0.4212379 16.47228554 1.62450847 19.125 4.3125 C19.9375 7.5625 19.9375 7.5625 20.125 10.3125 C19.691875 9.6525 19.25875 8.9925 18.8125 8.3125 C18.255625 7.6525 17.69875 6.9925 17.125 6.3125 C16.135 6.3125 15.145 6.3125 14.125 6.3125 C14.125 5.3225 14.125 4.3325 14.125 3.3125 C-5.675 2.8175 -5.675 2.8175 -25.875 2.3125 C-25.875 1.9825 -25.875 1.6525 -25.875 1.3125 C-17.24861485 0.36084667 -8.67515651 0.06612162 0 0 Z " fill="#0983E5" transform="translate(497.875,450.6875)"/>
<path d="M0 0 C0 3.57575896 -1.08840607 5.05295935 -3 8 C-2.34 8 -1.68 8 -1 8 C-2 10 -2 10 -5.375 11.4375 C-8.43357217 12.75585007 -9.96872183 13.49077403 -12 16 C-12.66 15.67 -13.32 15.34 -14 15 C-9.38 10.05 -4.76 5.1 0 0 Z " fill="#1487E8" transform="translate(634,527)"/>
<path d="M0 0 C1.32 0 2.64 0 4 0 C4 0.66 4 1.32 4 2 C6.59257669 2.86419223 8.34037707 3.17580932 11.01171875 3.31640625 C12.14770508 3.37924805 12.14770508 3.37924805 13.30664062 3.44335938 C14.48516602 3.50233398 14.48516602 3.50233398 15.6875 3.5625 C16.88342773 3.62727539 16.88342773 3.62727539 18.10351562 3.69335938 C20.06881447 3.79927368 22.03438496 3.90012551 24 4 C24 4.33 24 4.66 24 5 C23.29915283 5.02505615 22.59830566 5.0501123 21.8762207 5.07592773 C18.68814512 5.19226545 15.50033758 5.31482044 12.3125 5.4375 C10.65831055 5.49647461 10.65831055 5.49647461 8.97070312 5.55664062 C7.90400391 5.59853516 6.83730469 5.64042969 5.73828125 5.68359375 C4.75899658 5.72025146 3.77971191 5.75690918 2.77075195 5.79467773 C0.10534823 5.99219333 -2.39469788 6.41573033 -5 7 C-4.175 6.21625 -3.35 5.4325 -2.5 4.625 C0.22988506 2.36278736 0.22988506 2.36278736 0 0 Z " fill="#3F9DE6" transform="translate(351,392)"/>
<path d="M0 0 C2.4375 2.3125 2.4375 2.3125 4 5 C3.75 7.3125 3.75 7.3125 3 9 C2.34 7.68 1.68 6.36 1 5 C0.01 5 -0.98 5 -2 5 C-2 4.01 -2 3.02 -2 2 C-5.3 1.67 -8.6 1.34 -12 1 C-12 0.67 -12 0.34 -12 0 C-7.68972198 -0.923631 -4.25468049 -1.29490276 0 0 Z " fill="#1587E7" transform="translate(514,452)"/>
<path d="M0 0 C0 2.33333333 0 4.66666667 0 7 C-0.61875 7.04125 -1.2375 7.0825 -1.875 7.125 C-2.57625 7.41375 -3.2775 7.7025 -4 8 C-5.15835673 10.97503122 -5.15835673 10.97503122 -6 14 C-6.99 14.495 -6.99 14.495 -8 15 C-6.51194289 9.19657726 -3.40902445 4.82409121 0 0 Z " fill="#1083E9" transform="translate(287,326)"/>
<path d="M0 0 C0 3.93169105 -1.39419615 5.16427228 -4 8 C-4.66 8 -5.32 8 -6 8 C-6.33 6.68 -6.66 5.36 -7 4 C-5.824375 3.566875 -5.824375 3.566875 -4.625 3.125 C-1.90328368 2.15087746 -1.90328368 2.15087746 0 0 Z " fill="#1487E8" transform="translate(593,509)"/>
<path d="M0 0 C0.66 0.33 1.32 0.66 2 1 C1.04882866 2.1725131 0.08882991 3.33787015 -0.875 4.5 C-1.40867187 5.1496875 -1.94234375 5.799375 -2.4921875 6.46875 C-2.98976563 6.9740625 -3.48734375 7.479375 -4 8 C-4.66 8 -5.32 8 -6 8 C-4.55746343 4.63408134 -2.66735273 2.48952921 0 0 Z " fill="#1183E7" transform="translate(600,565)"/>
</svg>
